<svg xmlns="http://www.w3.org/2000/svg" height="150.015" width="159.773" xml:space="preserve">
    <defs>
        <clipPath id="a" clipPathUnits="userSpaceOnUse">
            <path d="M0 112.511h119.83V0H0Z"/>
        </clipPath>
    </defs>
    <g clip-path="url(#a)" transform="matrix(1.33333 0 0 -1.33333 0 150.015)">
        <path style="fill:#015e5b;fill-opacity:1;fill-rule:nonzero;stroke:none" d="M0 0a2.642 2.642 0 0 1-.554-.075 14.987 14.987 0 0 1-1.732-.501 1.074 1.074 0 0 1-.119-.018.466.466 0 0 1-.201-.096 16.104 16.104 0 0 1-1.833-.804l-.284-.143a3.01 3.01 0 0 1-.302-.176.352.352 0 0 1-.153-.309.345.345 0 0 1 .281-.284l.094-.014a.667.667 0 0 1 .332.053c.095.044.19.087.296.132a.346.346 0 0 1 .096.065l.535.273c.253.12.532.243.839.369.023-.448.061-1.02.114-1.744.073-.944.161-1.7.261-2.247.047-.245.089-.425.128-.55.107-.337.305-.554.59-.644a.69.69 0 0 1 .189-.027.46.46 0 0 1 .111.012.43.43 0 0 1 .102.021.63.63 0 0 1 .081.033c.113.058.196.18.201.298a.34.34 0 0 1-.205.305c-.049.021-.099.104-.138.221a4.651 4.651 0 0 0-.095.416c-.056.271-.107.603-.152.988a43.51 43.51 0 0 0-.195 2.322l-.03.541-.026.406a19.713 19.713 0 0 0 1.603.464l.038.007a.529.529 0 0 1 .269-.085.665.665 0 0 1 .165.024c.066.024.192.091.243.188a.31.31 0 0 1 .013.259C.514-.205.376-.01 0 0" transform="translate(63.664 68.605)"/>
        <path style="fill:#015e5b;fill-opacity:1;fill-rule:nonzero;stroke:none" d="M0 0a.712.712 0 0 1-.182.013.43.43 0 0 1-.304-.139 6.136 6.136 0 0 0-.431-.455 1.57 1.57 0 0 0-.217-.174 2.266 2.266 0 0 0-.245-.131.607.607 0 0 0-.429-.032.958.958 0 0 0-.564.377c-.136.186-.233.45-.291.786a3.59 3.59 0 0 0 .1 1.562c.149.537.397 1.045.737 1.511.222.305.446.558.664.752a.592.592 0 0 0 .141.108.296.296 0 0 0 .105-.139c.046-.143.208-.227.339-.227h.003c.044 0 .088.005.132.016.139.035.26.157.28.288a.302.302 0 0 1-.011.137l-.046.138a.865.865 0 0 1-.077.158.67.67 0 0 1-.172.197c-.186.139-.43.183-.734.129a1.098 1.098 0 0 1-.316-.105 1.696 1.696 0 0 1-.235-.136 2.008 2.008 0 0 1-.224-.188 3.245 3.245 0 0 1-.172-.174l-.15-.169a5.643 5.643 0 0 1-1.103-1.839 4.348 4.348 0 0 1-.244-2.01c.057-.436.175-.803.354-1.092.231-.37.563-.618.98-.736a2.093 2.093 0 0 1 .75-.078 1.974 1.974 0 0 1 .738.19c.215.102.408.239.576.408a4.5 4.5 0 0 1 .449.53.326.326 0 0 1 .062.312C.224-.103.101-.023 0 0" transform="translate(68.044 64.88)"/>
        <path style="fill:#015e5b;fill-opacity:1;fill-rule:nonzero;stroke:none" d="M0 0c-.048.115-.184.31-.56.319a2.402 2.402 0 0 1-.555-.074 14.689 14.689 0 0 1-1.732-.501 1.074 1.074 0 0 1-.119-.018.475.475 0 0 1-.203-.097 17.685 17.685 0 0 1-1.246-.517c-.18-.084-.375-.178-.585-.286l-.283-.144a3.06 3.06 0 0 1-.306-.178.344.344 0 0 1-.149-.305.34.34 0 0 1 .281-.285l.094-.015a.71.71 0 0 1 .331.053c.095.045.19.088.297.132a.387.387 0 0 1 .096.065l.535.273c.255.121.537.245.839.37.024-.459.062-1.043.115-1.744.072-.945.16-1.701.26-2.247.046-.246.088-.426.127-.551.107-.335.305-.552.59-.644a.682.682 0 0 1 .188-.026c.041 0 .079.003.11.012.036.002.07.009.104.02a.654.654 0 0 1 .082.034.373.373 0 0 1 .201.297.343.343 0 0 1-.204.306c-.05.021-.102.104-.139.22a4.771 4.771 0 0 0-.096.417 11.71 11.71 0 0 0-.151.988 42.075 42.075 0 0 0-.195 2.322l-.032.541c-.008.154-.017.289-.024.405a18.742 18.742 0 0 0 1.602.464l.041.008a.485.485 0 0 1 .262-.085h.005a.612.612 0 0 1 .163.024c.063.022.195.09.245.19A.308.308 0 0 1 0 0" transform="translate(74.303 71.508)"/>
        <path style="fill:#015e5b;fill-opacity:1;fill-rule:nonzero;stroke:none" d="m0 0-.003-.007a.269.269 0 0 0-.051.058c-.104.184-.092.413.033.645l.035.062C.015.5.012.242 0 0m-31.919-13.021a1.748 1.748 0 0 0-.469.328c.076-.022.151-.046.222-.072a.61.61 0 0 0 .252-.208l-.005-.048m11.19-6.025.198.038c1.756.343 3.571.698 5.343 1.123 2.557.614 5.917 1.432 9.209 2.325 2.124.576 4.577 1.289 6.834 2.483.425.224.774.485 1.04.775.308.338.426.744.323 1.114-.1.366-.404.649-.833.776a5.92 5.92 0 0 1-1.596.232l-.23.002c-1.613 0-3.173-.27-4.9-.596-2.928-.554-5.667-1.444-7.961-2.241-2.588-.9-4.478-1.783-6.129-2.864-.987-.646-1.927-1.31-2.561-2.317-.004-.002-.038-.024-.196-.063a38.384 38.384 0 0 0-.888-.222l-.034-.009a51.964 51.964 0 0 1-1.19-.303 3.436 3.436 0 0 1-.794-.34c-.394-.221-.616-.475-.677-.778-.06-.3.045-.618.323-.974.175-.223.36-.442.552-.667l.038-.046c.236-.277.481-.564.696-.858a6.28 6.28 0 0 0 .674-1.168c.094-.209.114-.382.059-.517-.051-.124-.175-.225-.369-.3a5.34 5.34 0 0 0-1.451-.339c-1.338-.12-2.758.097-4.466.679-2.724.929-4.913 2.259-6.693 4.067-.992 1.008-1.648 2.068-2.005 3.24-.551 1.806-.024 2.938 1.71 3.669.825.349 1.753.544 2.746.582a.491.491 0 0 0 .173-.111c.137-.132.27-.274.408-.422.224-.24.477-.512.772-.737.292-.221.607-.308.913-.254a.986.986 0 0 1 .662.459c.345.545.171 1.227-.412 1.618-.555.374-1.171.449-1.769.522-.052.006-.117.037-.114.029-1.002 1.905-1.397 3.658-1.208 5.359.231 2.072 1.434 3.485 3.576 4.2 1.261.42 2.661.467 4.406.149.552-.101 1.118-.138 1.697-.169.648-.043 1.218.244 1.583.804.295.455.603.95.853 1.482 2.015 4.297 5.513 7.229 10.396 8.715a8.992 8.992 0 0 0 5.491-.043c2.511-.812 4.303-2.167 5.477-4.142.47-.79.788-1.681.947-2.633a.236.236 0 0 0-.04-.088c-.437-.372-.94-.903-.966-1.708-.01-.319.079-.682.27-1.11a.852.852 0 0 1 1.08-.444c.212.086.628.344.687.713.084.516.121 1.086.115 1.743l-.002.097c-.003.239-.003.239.271.318 2.113.613 3.835.645 5.416.102C8.628 1.25 9.886-.16 10.463-2.285c.847-3.11-.688-6.137-3.815-7.532-1.046-.467-2.214-.782-3.571-.964-.604-.082-.683-.469-.687-.797-.021-2.477.274-5.068.878-7.703.212-.928.461-1.851.7-2.743l.301-1.129-2.786-.417c.296.531.578 1.035.858 1.516.026.01.064.02.107.033.038.012.076.024.115.038.032.013.067.023.134.042.053.014.104.029.155.047.692.262.563.792.507.948a.648.648 0 0 1-.386.389.889.889 0 0 1-.726-.051.513.513 0 0 1-.23-.185c-.237-.367-.616-.446-1.095-.546a7.208 7.208 0 0 1-.375-.084c-4.375-1.152-7.858-2.328-10.961-3.701-2.156-.952-4.297-2.183-6.738-3.874a28.58 28.58 0 0 0-.726-.479l-.017.054c-.102.344-.199.67-.331.999a553.134 553.134 0 0 1-2.242 5.478l-.092.22c-.346.833-.705 1.694-.821 2.595l-.006.047-.004.033c-.007.064-.015.129-.017.192-.024.674-.024.674.679.813m15.295 7.169c1.496.312 3.106.608 4.755.659.056.003.113.004.17.004.238 0 .488-.021.751-.044l.079-.006c.14-.012.283-.024.42-.033a.683.683 0 0 0 .076-.008c.048-.032.101-.064.155-.097.091-.056.155-.097.185-.117a.475.475 0 0 0-.13-.197l-.111-.066c-.662-.391-1.347-.797-2.056-1.085-2.285-.927-4.879-1.73-8.161-2.525-2.742-.665-5.571-1.303-8.066-1.866-1-.225-1.999-.451-2.997-.679l-.09-.019c.066.065.134.129.204.189 1.375 1.182 3.013 1.987 4.434 2.62 3.142 1.398 6.538 2.468 10.382 3.27m.107-30.81c.042.287.085.559.156.816.445 1.61.935 3.281 1.368 4.756l.038.134c.004.012.011.025.017.037l.026.003c.411.057.837.116 1.243.116l.074-.001c.25-.004.372-.222.43-.405.159-.493.1-1.024-.185-1.677-.694-1.596-1.761-2.866-3.167-3.779m6.928.505h.001zm.11-.057c.427.757.868 1.539 1.519 2.119.118.104.213.154.278.158.023-.006.101-.068.178-.264l.011-.055a.51.51 0 0 1 .048-.157 4.01 4.01 0 0 0 .139-.703c.016-.155-.016-.372-.07-.463a4.455 4.455 0 0 1-.185-.356 14.004 14.004 0 0 1-.201-.498l-.018-.046a7.568 7.568 0 0 0-.334-.783c-1.001-1.922-2.405-3.719-4.55-5.82.896 2.192 1.912 4.615 3.183 6.864zm4.097-12.729c.116.267.231.518.373.738.575.889 1.348 1.475 2.298 1.741.135.038.288.057.438.057.104 0 .208-.008.308-.027.158-.031.277-.114.325-.228.046-.106.025-.24-.057-.368-.113-.174-.344-.485-.622-.613a66.73 66.73 0 0 0-2.625-1.12l-.06-.025a60.132 60.132 0 0 0-.378-.155m12.091 5.013c.023.056.048.112.074.17l.015.036c.024.053.047.104.066.153l.079.196.148.368c.14.336.282.671.425 1.006.024.058.05.114.077.172.032.065.063.131.091.197l.13.304c.858 2.007 1.746 4.082 2.924 5.962.241.385.519.747.827 1.079.044.048.079.082.106.104a.979.979 0 0 0 .053-.16 4.805 4.805 0 0 0-.051-2.695c-.152-.483-.366-.979-.554-1.417l-.183-.424c-.129-.307-.264-.626-.439-.895-.113-.175-.262-.348-.397-.508a5.454 5.454 0 0 1-.39-.501c-.413-.62-.946-1.159-1.46-1.649a109.95 109.95 0 0 1-1.086-1.054l-.455-.444m-3.197-5.819-.493-1.456-.932.778zm-2.199-11.188c.526 2.712 1.342 5.31 2.14 7.739 1.147-1.447 1.745-2.834 1.877-4.343.132-1.532-.322-2.979-1.39-4.427-.789-1.071-1.79-1.907-2.574-2.515a1.495 1.495 0 0 0-.388-.186c-.059.159-.115.319-.104.435.121 1.238.24 2.272.439 3.297M26.17-52.293l-.063.055c-.082.075-.193.177-.363.202-.281.041-.57.045-.825.048-2.337.015-4.69-.442-7.423-1.465-.345-.13-.68-.264-1.03-.404.226.62.459 1.255.695 1.879a.701.701 0 0 0 .151.215l.478.401c.984.821 2.002 1.671 2.805 2.747.225.301.484.589.743.877.252.28.514.568.752.882.148.196.262.412.379.637.133.254.295.519.439.752.198.321.422.685.589 1.067.657 1.499.789 2.91.401 4.314-.183.663-.519.878-.77.942-.25.06-.645.034-1.11-.447-.407-.419-.82-.882-1.096-1.42a197.468 197.468 0 0 1-2.667-5.479 11.264 11.264 0 0 1-.423-1.099 14.225 14.225 0 0 0-.242-.661c-.066-.165-.151-.33-.225-.477a5.917 5.917 0 0 1-.221-.46c-.051-.114-.078-.234-.111-.376a1.357 1.357 0 0 0-.056-.201c-.048-.117-.107-.234-.167-.356a4.776 4.776 0 0 1-.205-.445l-.056-.152c-.131-.362-.234-.647-.554-.767-.136-.052-.217-.15-.279-.224l-.031-.039-.089-.07a5.091 5.091 0 0 0-.449-.342c-.286-.187-.58-.37-.865-.548l-.489-.307a.35.35 0 0 1-.107-.101l-.152-.111c-.105-.076-.222-.164-.34-.228-.239-.134-.48-.264-.725-.395l-.08-.043c-.237-.128-.481-.258-.72-.393-.133-.076-.261-.162-.389-.248a3.763 3.763 0 0 0-.451-.278 18.966 18.966 0 0 0-.92-.394l-.05-.021c-.185-.074-.37-.15-.554-.23a7.74 7.74 0 0 1-.41-.197 4.25 4.25 0 0 0-.6-.266 16.837 16.837 0 0 0-1.674-.412 2.921 2.921 0 0 0-.713-.041c-.106.007-.23.117-.261.226h.008c.065.014.129.028.195.053.302.126.608.245.941.378l.104.04c.578.227 1.178.462 1.764.721.401.178.804.432 1.275.799.485.381.719.914.657 1.501-.041.383-.223.71-.527.943-.369.283-.872.391-1.414.306-1.885-.292-3.65-1.988-4.017-3.859-.028-.139-.05-.155-.164-.186-.533-.142-1.066-.288-1.6-.435l-.129-.036c-.594-.163-1.208-.331-1.813-.491-.154-.041-.234-.045-.265-.041a.88.88 0 0 0-.014.251c.024.558.102 1.135.179 1.693l.048.366c.029.218.067.438.106.664.061.345.123.703.151 1.068.034.44-.059.742-.284.919-.34.271-.834.117-.994.065-1.08-.338-2.022-.904-2.929-1.765.14.366.28.739.407 1.112.147.43.413.83.772 1.158C.323-48.89 1.942-47.05 3.2-45.135c.627.954 1.302 2.119 1.559 3.522.032.171.1.905-.032 1.354l-.006.058c-.087.539-.331.923-.727 1.139-.415.23-.89.165-1.302-.175a4.71 4.71 0 0 1-.73-.721c-.311-.407-.6-.836-.858-1.275-1.5-2.544-2.643-5.274-3.685-7.852a7.128 7.128 0 0 0-2.107-2.88c-2.395-1.939-4.522-3.246-6.697-4.116a7.989 7.989 0 0 0-1.436-.414c-.735-.138-1.384-.025-1.876.332-.507.369-.828.975-.928 1.754-.199 1.552.126 3.026.471 4.263.759 2.729 2.068 5.278 4.001 7.793 1.64 2.135 3.418 3.663 5.435 4.672.247.124.515.239.78.348l-.24-.781a82.158 82.158 0 0 1-.745-2.535c-.217-.805-.348-1.636-.463-2.371-.043-.27.079-.681.331-.861.298-.209.753.007.894.081 1.472.848 2.665 2.074 3.548 3.647.578 1.028.801 1.88.722 2.76-.069.778-.589 1.401-1.297 1.55-.322.068-.655.058-.952.05l-.16-.005-.076-.003c1.125 3.346 2.507 6.918 4.222 10.909.061.141.11.18.254.201.528.076 1.057.155 1.587.233l.591.088c.508.075 1.015.151 1.524.224a.691.691 0 0 1 .577.865c-.104.406-.211.814-.318 1.221l-.075.282a94.277 94.277 0 0 0-.855 3.427 30.852 30.852 0 0 0-.716 6.581c.023.006.058.011.078.014 1.599.231 2.977.662 4.213 1.317 3.595 1.908 4.989 5.804 3.391 9.475-1.216 2.794-3.41 4.227-6.526 4.257h-.157c-1.376 0-2.513-.175-3.563-.55A8.894 8.894 0 0 1-2.17 7.837a11.48 11.48 0 0 1-4.864 2.407c-1.565.363-3.056.381-4.565.055-1.353-.291-2.6-.839-3.641-1.338-3.05-1.457-5.412-3.534-7.024-6.172A37.48 37.48 0 0 1-23.295.942l-.045-.085c-.175-.326-.354-.662-.536-.988a1.49 1.49 0 0 0-1.525-.74l-.571.094c-.278.048-.564.096-.847.136-1.348.185-2.798.292-4.264-.176-2.841-.908-4.402-2.879-4.514-5.701-.065-1.663.309-3.301 1.143-5.002a14.498 14.498 0 0 1-.726-.114c-.917-.175-2.101-.471-3.124-1.22-1.026-.75-1.458-1.743-1.323-3.035.165-1.586.845-3.035 2.079-4.43 1.667-1.885 3.823-3.333 6.594-4.429 1.882-.745 3.496-1.093 5.078-1.097.726 0 1.674.056 2.577.494.851.412 1.136 1.079.825 1.928-.187.51-.421.963-.694 1.342-.316.441-.663.852-.998 1.251l-.021.025c-.144.17-.287.34-.428.512-.075.091-.11.148-.126.174.037.029.123.084.309.167.228.101.614.238.861.305.357.095.711.182 1.087.274l.068.017a4.996 4.996 0 0 1-.001-.971l-.242-.094.249.032c.076-.665.292-1.252.587-1.986.21-.521.431-1.047.677-1.609l.181-.412c.833-1.905 1.694-3.875 2.236-5.916.072-.27.226-.382.344-.43.118-.046.31-.067.552.083.118.074.238.145.357.217l.072.043c.274.165.558.335.828.526 2.078 1.47 4.032 2.622 5.972 3.522 3.049 1.415 6.436 2.591 10.98 3.812.186.05.369.096.563.143-.211-.41-.429-.833-.627-1.259-.055-.118-.101-.165-.267-.21-.475-.126-.95-.25-1.452-.378-1.274-.328-2.591-.668-3.874-1.094-4.559-1.512-8.66-3.753-12.187-6.658l-.057-.043c-.062-.047-.149-.111-.215-.211a.671.671 0 0 1-.1-.3l-.092-.428.387-.038c.019-.001.038-.005.057-.007.07-.012.186-.033.324-.004a.597.597 0 0 1 .28.171l.026.025c.399.283.798.575 1.189.859l.121.089c.943.69 1.917 1.403 2.927 2.028 3.289 2.036 7.034 3.562 11.446 4.665.279.069.561.132.872.2-.113-.265-.228-.533-.353-.82l-.019-.043c-.303-.699-.616-1.421-.888-2.148a537.334 537.334 0 0 1-1.714-4.632 622.403 622.403 0 0 0-1.219-3.311.393.393 0 0 0-.121-.161c-1.654-.542-3.214-1.46-4.632-2.728-3.458-3.091-5.852-7.059-7.114-11.793-.391-1.463-.465-2.792-.226-4.063.201-1.068.685-1.888 1.401-2.371.695-.468 1.6-.607 2.617-.404.763.153 1.556.413 2.357.768 2.397 1.057 4.477 2.574 6.222 3.966l-.14-.376a493.11 493.11 0 0 1-1.247-3.384.783.783 0 0 0-.043-.088c-.074-.142-.183-.359-.098-.587a.516.516 0 0 1 .305-.296.534.534 0 0 1 .445.005c.219.109.285.342.333.509.009.031.016.06.025.082.997 2.213 2.475 3.664 4.522 4.439-.014-.185-.043-.38-.071-.571l-.008-.052c-.014-.099-.03-.199-.043-.3-.031-.251-.065-.5-.1-.751l-.014-.102c-.09-.648-.19-1.381-.236-2.1-.025-.422.082-.741.318-.949.239-.21.581-.275 1.016-.195a30.99 30.99 0 0 1 2.23.536l.073.019c.398.107.8.232 1.177.351l.235.073c.535-.975 1.053-1.169 2.239-.867.773.195 1.532.467 2.265.729l.102.036c.245.088.483.212.691.319.118.061.238.124.359.178.087.038.179.071.295.112.171.058.322.111.474.192.236.126.472.27.742.434a11.878 11.878 0 0 0 .874.492l.037.02c.26.133.529.273.785.44.605.394 1.198.797 1.854 1.245l.31.211a134.37 134.37 0 0 0-.541-1.483c-.009-.006-.022-.015-.041-.025a399.07 399.07 0 0 0-2.6-1.253c-.197-.092-.348-.154-.528-.1-.254.084-.497-.047-.725-.19-.125-.079-.187-.217-.182-.413.007-.216.081-.365.22-.444.15-.081.311-.112.463-.143l.062-.01c.081-.016.165-.023.251-.029.051-.003.153-.009.171-.015.35-.262.699-.555.98-.79l.031-.027c.186-.154.371-.309.576-.465a.325.325 0 0 0-.026-.102c-.863-2.671-1.834-5.844-2.496-9.121-.209-1.036-.426-2.109-.267-3.251.089-.642.39-.901.627-1.002a.873.873 0 0 1 .345-.071c.242 0 .495.091.754.275 1.487 1.043 2.61 2.154 3.432 3.396 1.257 1.896 1.632 3.805 1.148 5.839-.348 1.471-1.087 2.848-2.257 4.211a.372.372 0 0 0-.064.133c.308.97.648 1.936.943 2.766.008.021.05.066.07.076 2.033.899 3.784 1.477 5.508 1.816 1.376.271 2.753.373 4.105.304.162 0 .286.076.387.138.015.009.031.021.048.029l.518.244z" transform="translate(75.37 86.92)"/>
        <path style="fill:#015e5b;fill-opacity:1;fill-rule:nonzero;stroke:none" d="M0 0c.271 1.179.468 2.058.6 2.684 1.768.066 3.602.057 5.454-.026.53-.023 1.295-.07 2.269-.139.307-.029.552-.084.729-.167.16-.077.275-.221.352-.447.031-.074.105-.128.243-.174.112-.037.209-.056.297-.06.108-.005.185.002.236.054l.04.041-.004.056c-.033.431-.35.764-.942.991-.377.147-1.008.266-1.877.353a52.07 52.07 0 0 1-4.581.237c-.752.006-1.63-.007-2.613-.042a2.3 2.3 0 0 1-.436.096c-.072.007-.29.031-.362-.123a62.047 62.047 0 0 1-5.586-.514 58.842 58.842 0 0 1-2.507-.411l-.591-.107-.659-.118a11.856 11.856 0 0 1-1.203-.296.16.16 0 0 1-.111-.119c-.012-.064.015-.123.1-.194l.237-.136c.245-.109.468-.153.664-.127.425.063.858.118 1.289.162.089.009.127.052.144.088 1.463.272 2.376.439 2.642.482 1.215.185 2.579.346 4.055.475.307.025.756.057 1.346.095-.514-2.055-1.21-5.133-2.072-9.151-.853-4.019-1.423-7.265-1.695-9.648-.116-1.041-.173-1.802-.173-2.332 0-1.133.318-1.958.945-2.449.191-.142.433-.23.697-.257a.471.471 0 0 1 .123-.015.81.81 0 0 1 .133.012c.111.019.152.079.166.123.022.068-.003.138-.074.207-.432.42-.651 1.111-.651 2.056 0 .371.047 1.046.139 2.003.13 1.299.344 2.794.635 4.442v.001c.429 2.517 1.125 5.91 2.069 10.083C-.455-1.967-.276-1.195 0 0" transform="translate(29.088 49.63)"/>
        <path style="fill:#015e5b;fill-opacity:1;fill-rule:nonzero;stroke:none" d="M0 0c.24.642.545 1.276.908 1.89.156.277.346.567.567.865l.098.153.122.187a2.334 2.334 0 0 0-.001-.171 9.809 9.809 0 0 0-.022-.266 3.727 3.727 0 0 1-.016-.232 6.001 6.001 0 0 0-.275-1.394C1.231.582 1.005.228.708-.022.42-.266.143-.384-.136-.384h-.003L0 0m8.033-2.844h-.001Zm5.957 4.862a32.792 32.792 0 0 1-.245-.539c-.112-.247-.196-.43-.253-.551-.1-.207-.367-.721-.794-1.524a21.877 21.877 0 0 0-.846-1.414l-.001-.001a5.185 5.185 0 0 0-.32-.447c.02.216.081.521.18.91.142.594.3 1.113.47 1.548.375 1.019.855 1.926 1.427 2.696.124.166.245.305.36.416.051-.35.057-.718.022-1.094m-.266-3.102c-.072-.444-.135-.88-.189-1.306a30.95 30.95 0 0 1-.183-1.945 5.357 5.357 0 0 1-.034-1.061c.023-.423.125-.771.301-1.031.061-.093.192-.166.413-.235a.85.85 0 0 1 .255-.046c.091 0 .181.023.252.096.198.294.437.537.71.72l.055.038v.067c0 .073-.054.125-.128.183-.259.148-.443.187-.581.122a1.649 1.649 0 0 1-.163-.094c.011.097.026.211.046.342.04.268.063.436.07.499.089.784.16 1.339.215 1.699.228 1.483.448 2.724.656 3.69.373 1.808.975 4.345 1.789 7.541.485 1.932.793 3.232.917 3.864.011.05.008.149-.125.237a1.047 1.047 0 0 1-.239.112c-.091.029-.18.054-.272.072-.094.02-.181.028-.259.025-.155-.009-.206-.083-.22-.138-.47-1.593-1.113-4.01-1.909-7.183-.145-.569-.269-1.063-.372-1.482a.986.986 0 0 1-.354.211 1.532 1.532 0 0 1-.762.08 1.469 1.469 0 0 1-.601-.293 2.6 2.6 0 0 1-.453-.427 8.704 8.704 0 0 1-.371-.506A10.706 10.706 0 0 1 10.985.55C9.918-.789 8.96-1.899 8.136-2.755l-.007.038a.21.21 0 0 0-.004.051c-.021.145-.018.327.01.544.005.062.057.409.279 1.702.364 2.058.556 3.165.605 3.485.014.109-.052.203-.194.279a1.663 1.663 0 0 1-.357.135 1.444 1.444 0 0 1-.349.052h-.002c-.352.023-.672-.119-.961-.426-.291-.297-.659-.787-1.093-1.453a30.055 30.055 0 0 1-2.252-4.095c.027.122.055.244.085.367.172.722.44 1.756.797 3.074.36 1.326.586 2.173.682 2.547.024.131-.096.219-.137.249a1.06 1.06 0 0 1-.276.136 3.043 3.043 0 0 1-.316.085 1.284 1.284 0 0 1-.299.028c-.185-.007-.231-.104-.242-.158a181.96 181.96 0 0 0-.512-2.404L3.458.857 2.839.032c-.074-.1-.22-.284-.434-.553a9.611 9.611 0 0 0-.493-.578l-.495-.499a4.946 4.946 0 0 0-.552-.488 8.828 8.828 0 0 0-.568-.384 4.99 4.99 0 0 0-.743-.384l-.019-.008c-.003.009-.005.021-.007.032-.08.263-.104.573-.07.921.032.303.123.691.271 1.156a2.164 2.164 0 0 1 1.38.132c.483.212.852.558 1.095 1.027.215.417.34 1.001.369 1.736.015.402-.01.708-.076.93a1.113 1.113 0 0 1-.022.149c-.032.213-.109.378-.227.487-.112.105-.279.183-.497.23a.958.958 0 0 1-.921-.281 7.578 7.578 0 0 1-.801-.966A12.169 12.169 0 0 1-1.147.579a4.458 4.458 0 0 1-.079-.195l-.004-.01-.02.005c-.012.007-.026.016-.037.018a.316.316 0 0 1-.067.055l-.021.014a.926.926 0 0 0-.211.306c-.084.194-.106.47-.066.823.02.204.088.497.2.872.185.648.194.696.198.717.011.075-.015.184-.196.274a1.59 1.59 0 0 1-.352.125 2.5 2.5 0 0 1-.34.057c-.338.028-.644-.11-.915-.421-.208-.246-.509-.732-.921-1.49a31.227 31.227 0 0 1-1.536-3.361c.17.683.401 1.565.689 2.63.373 1.373.589 2.18.681 2.546.018.09-.028.173-.14.248a1.33 1.33 0 0 1-.267.13 2.25 2.25 0 0 1-.32.093 1.172 1.172 0 0 1-.3.028c-.183-.007-.23-.103-.242-.158-.108-.531-.278-1.333-.511-2.404-.234-1.07-.405-1.873-.512-2.398a27.868 27.868 0 0 1-.082-.372l-.086-.41a10.563 10.563 0 0 1-.07-.381 9.274 9.274 0 0 1-.066-.42 8.166 8.166 0 0 1-.038-.391 5.575 5.575 0 0 1-.017-.418c0-.131.007-.263.023-.39.039-.35.144-.617.315-.797.059-.059.159-.093.309-.109.102-.023.313-.07.35.08a34.57 34.57 0 0 0 1.376 3.307c.576 1.2 1.084 2.144 1.512 2.811-.016-.424.086-.767.306-1.027.248-.293.646-.519 1.184-.676-.297-.794-.444-1.432-.438-1.897.015-.639.199-1.07.546-1.28A2.26 2.26 0 0 1-.16-3.606c.503 0 1.089.286 1.741.849.488.416.972.945 1.442 1.577L3-1.288l-.086-.411a13.417 13.417 0 0 1-.136-.801 6.275 6.275 0 0 1-.038-.391 5.575 5.575 0 0 1-.017-.418c0-.136.007-.268.023-.39.039-.35.144-.617.315-.797a.33.33 0 0 1 .161-.082l-.002-.014.005.013a.885.885 0 0 1 .154-.025c.145-.037.222-.033.278 0l.049.038.014.042c.305.872.849 1.97 1.617 3.265.309.523.562.945.759 1.264.194.313.45.69.76 1.119.238.328.477.626.712.891-.035-.176-.078-.382-.127-.619-.096-.467-.17-.815-.222-1.049a20.251 20.251 0 0 1-.238-1.715c-.052-.566-.055-.945-.009-1.155.058-.313.29-.568.689-.758.387-.184.734-.24 1.047-.168a.27.27 0 0 1 .088.049.223.223 0 0 1 .057.046c.136.172.42.521.85 1.043.235.287.435.534.605.745-.122-.545-.133-.957-.034-1.251.098-.312.345-.54.735-.679.378-.135.724-.148 1.026-.036.429.172.814.622 1.176 1.375.183.373.354.732.513 1.073" transform="translate(34.349 34.639)"/>
        <path style="fill:#015e5b;fill-opacity:1;fill-rule:nonzero;stroke:none" d="m0 0-.052-.198c-.606-2.232-1.163-4-1.656-5.257a18.239 18.239 0 0 0-.706-1.607c-.578-1.119-1.178-1.901-1.795-2.335a1.745 1.745 0 0 0-.275-.133l-.006.006a2.163 2.163 0 0 0-.064.074c-.135.242-.217.583-.243 1.012-.035.683.114 1.43.443 2.22.185.44.427.91.719 1.402.297.496.569.918.809 1.253.25.349.572.781.956 1.285A43.89 43.89 0 0 0 0 0m6.239 7.186v-.001c-.714-.544-2.994-2.617-3.882-3.487.354 1.539.662 2.996.916 4.334.044.197-.209.306-.305.347a1.751 1.751 0 0 1-.528.138c-.132.012-.319.015-.404-.106l-.023-.033v-.074A43.761 43.761 0 0 0 .487 5.315C-.289 3.913-.952 2.879-1.485 2.241a4.14 4.14 0 0 0-.379-.425l.009.121c.027.334.099.775.213 1.309.214.947.642 2.552 1.273 4.777.016.086-.027.169-.128.248a.914.914 0 0 1-.28.138 5.739 5.739 0 0 1-.31.089 1.24 1.24 0 0 1-.299.036c-.187-.009-.232-.106-.241-.16a84.415 84.415 0 0 0-.335-1.495 87.987 87.987 0 0 1-.426-1.943 21.232 21.232 0 0 1-.286-1.768l-.044-.288a7.532 7.532 0 0 1-.028-.281 2.537 2.537 0 0 1 .012-.587 1.29 1.29 0 0 1 .06-.311c.027-.078.066-.163.116-.251a.861.861 0 0 1 .187-.237c.078-.079.194-.127.359-.147.073 0 .116.004.144.01a.874.874 0 0 1 .139-.01h.001c.26.01.538.174.854.505.263.293.579.726.941 1.29.346.561.74 1.27 1.175 2.118a190.083 190.083 0 0 0-.781-3.217 50.764 50.764 0 0 1-2.732-3.099C-3.578-2.96-4.533-4.35-5.108-5.465c-.423-.816-.671-1.597-.736-2.32-.09-.958.076-1.632.492-2.001.293-.271.666-.42 1.108-.443l.123-.003c.388 0 .732.099 1.023.293.545.353 1.068.909 1.558 1.655.305.478.587 1.017.839 1.599C-.179-5.487.389-3.808.986-1.688c.35 1.217.689 2.505 1.006 3.83.181.181.669.663 1.463 1.446.85.84 2.936 2.827 3.35 3.285l.092.101-.162.122c-.16.096-.359.193-.496.09" transform="translate(53.113 30.095)"/>
    </g>
</svg>
